<svg xmlns="http://www.w3.org/2000/svg" viewBox="0 0 100 100" width="100" height="100">
  <defs>
    <!-- Gradient for petals -->
    <radialGradient id="petalGradient" cx="0.5" cy="0.3" r="0.8">
      <stop offset="0%" style="stop-color:#e6c6d4;stop-opacity:1" />
      <stop offset="50%" style="stop-color:#a65e9e;stop-opacity:1" />
      <stop offset="100%" style="stop-color:#704b91;stop-opacity:1" />
    </radialGradient>
    
    <!-- Gradient for center -->
    <radialGradient id="centerGradient" cx="0.5" cy="0.5" r="0.5">
      <stop offset="0%" style="stop-color:#f9e79f;stop-opacity:1" />
      <stop offset="100%" style="stop-color:#f4d03f;stop-opacity:1" />
    </radialGradient>
    
    <!-- Gradient for stem -->
    <linearGradient id="stemGradient" x1="0%" y1="0%" x2="0%" y2="100%">
      <stop offset="0%" style="stop-color:#58d68d;stop-opacity:1" />
      <stop offset="100%" style="stop-color:#27ae60;stop-opacity:1" />
    </linearGradient>
    
    <!-- Drop shadow filter -->
    <filter id="dropShadow" x="-20%" y="-20%" width="140%" height="140%">
      <feDropShadow dx="2" dy="2" stdDeviation="3" flood-color="#1f1b3b" flood-opacity="0.3"/>
    </filter>
  </defs>
  
  <!-- Background circle for contrast -->
  <circle cx="50" cy="50" r="48" fill="#1f1b3b" opacity="0.1"/>
  
  <!-- Stem -->
  <path d="M50 50 Q48 65 47 80 Q47 85 50 85 Q53 85 53 80 Q52 65 50 50" 
        fill="url(#stemGradient)" 
        filter="url(#dropShadow)"/>
  
  <!-- Leaf -->
  <path d="M47 65 Q40 68 38 72 Q40 76 45 74 Q47 70 47 65" 
        fill="url(#stemGradient)" 
        opacity="0.8"/>
  
  <!-- Back petals (larger, behind) -->
  <g transform="translate(50,50)" filter="url(#dropShadow)">
    <!-- Petal 1 -->
    <ellipse cx="0" cy="-20" rx="8" ry="18" fill="url(#petalGradient)" 
             transform="rotate(0)" opacity="0.9"/>
    <!-- Petal 2 -->
    <ellipse cx="0" cy="-20" rx="8" ry="18" fill="url(#petalGradient)" 
             transform="rotate(72)" opacity="0.9"/>
    <!-- Petal 3 -->
    <ellipse cx="0" cy="-20" rx="8" ry="18" fill="url(#petalGradient)" 
             transform="rotate(144)" opacity="0.9"/>
    <!-- Petal 4 -->
    <ellipse cx="0" cy="-20" rx="8" ry="18" fill="url(#petalGradient)" 
             transform="rotate(216)" opacity="0.9"/>
    <!-- Petal 5 -->
    <ellipse cx="0" cy="-20" rx="8" ry="18" fill="url(#petalGradient)" 
             transform="rotate(288)" opacity="0.9"/>
  </g>
  
  <!-- Front petals (smaller, in front) -->
  <g transform="translate(50,50)">
    <!-- Petal 1 -->
    <ellipse cx="0" cy="-15" rx="6" ry="14" fill="url(#petalGradient)" 
             transform="rotate(36)"/>
    <!-- Petal 2 -->
    <ellipse cx="0" cy="-15" rx="6" ry="14" fill="url(#petalGradient)" 
             transform="rotate(108)"/>
    <!-- Petal 3 -->
    <ellipse cx="0" cy="-15" rx="6" ry="14" fill="url(#petalGradient)" 
             transform="rotate(180)"/>
    <!-- Petal 4 -->
    <ellipse cx="0" cy="-15" rx="6" ry="14" fill="url(#petalGradient)" 
             transform="rotate(252)"/>
    <!-- Petal 5 -->
    <ellipse cx="0" cy="-15" rx="6" ry="14" fill="url(#petalGradient)" 
             transform="rotate(324)"/>
  </g>
  
  <!-- Flower center -->
  <circle cx="50" cy="50" r="8" fill="url(#centerGradient)" 
          filter="url(#dropShadow)"/>
  
  <!-- Center details -->
  <circle cx="50" cy="50" r="5" fill="#f4d03f" opacity="0.8"/>
  <circle cx="48" cy="48" r="1.5" fill="#f9e79f"/>
  <circle cx="52" cy="49" r="1" fill="#f9e79f"/>
  <circle cx="50" cy="52" r="1" fill="#f9e79f"/>
</svg>